# xmcd CD database file
#
# Track frame offsets:
#	183
#	19740
#	36850
#	58978
#	92368
#	107958
#	132313
#	148378
#	163890
#
# Disc length: 2481 seconds
#
# Revision: 2
# Processed by: cddbd v1.4PL0 Copyright (c) Steve Scherf et al.
# Submitted via: CDex 1.40Release
#
DISCID=8309af09
DTITLE=Groundhogs - Thank Christ For The Bomb
DYEAR=1970
DGENRE=Rock
TTITLE0=Strange Town
TTITLE1=Darkness is No Friend
TTITLE2=Soldier
TTITLE3=Thank Christ For The Bomb
TTITLE4=Ship On The Ocean
TTITLE5=Garden
TTITLE6=Status People
TTITLE7=Rich Man, Poor Man
TTITLE8=Eccentric Man
EXTD=YEAR: 1970 ID3G: 17
EXTT0=
EXTT1=
EXTT2=
EXTT3=
EXTT4=
EXTT5=
EXTT6=
EXTT7=
EXTT8=
PLAYORDER=
